<svg width="70" height="70" viewBox="0 0 70 70" fill="none" xmlns="http://www.w3.org/2000/svg">
<g clip-path="url(#clip0_8_343)">
<path d="M67.9492 60.2153H60.2151V67.9492" stroke="black" stroke-width="4.10156" stroke-miterlimit="10" stroke-linecap="round" stroke-linejoin="round"/>
<path d="M65.049 51.5145H51.5145V65.049" stroke="black" stroke-width="4.10156" stroke-miterlimit="10" stroke-linecap="round" stroke-linejoin="round"/>
<path d="M9.78482 2.05078L9.78469 9.78482H2.05078" stroke="black" stroke-width="4.10156" stroke-miterlimit="10" stroke-linecap="round" stroke-linejoin="round"/>
<path d="M18.4855 4.95105V18.4855H4.951" stroke="black" stroke-width="4.10156" stroke-miterlimit="10" stroke-linecap="round" stroke-linejoin="round"/>
<path d="M35 41.8359C38.7754 41.8359 41.8359 38.7754 41.8359 35C41.8359 31.2246 38.7754 28.1641 35 28.1641C31.2246 28.1641 28.1641 31.2246 28.1641 35C28.1641 38.7754 31.2246 41.8359 35 41.8359Z" stroke="black" stroke-width="4.10156" stroke-miterlimit="10" stroke-linecap="round" stroke-linejoin="round"/>
<path d="M60.2152 60.2151L39.8337 39.8336" stroke="black" stroke-width="4.10156" stroke-miterlimit="10" stroke-linecap="round" stroke-linejoin="round"/>
<path d="M30.1663 30.1663L9.78481 9.78479" stroke="black" stroke-width="4.10156" stroke-miterlimit="10" stroke-linecap="round" stroke-linejoin="round"/>
<path d="M2.05078 60.2153H9.78482V67.9492" stroke="black" stroke-width="4.10156" stroke-miterlimit="10" stroke-linecap="round" stroke-linejoin="round"/>
<path d="M4.951 51.5145H18.4855V65.049" stroke="black" stroke-width="4.10156" stroke-miterlimit="10" stroke-linecap="round" stroke-linejoin="round"/>
<path d="M60.2151 2.05078L60.2153 9.78482H67.9492" stroke="black" stroke-width="4.10156" stroke-miterlimit="10" stroke-linecap="round" stroke-linejoin="round"/>
<path d="M60.9766 29.5312L55.5078 35L60.9766 40.4688" stroke="black" stroke-width="4.10156" stroke-miterlimit="10" stroke-linecap="round" stroke-linejoin="round"/>
<path d="M9.02344 29.5312L14.4922 35L9.02344 40.4688" stroke="black" stroke-width="4.10156" stroke-miterlimit="10" stroke-linecap="round" stroke-linejoin="round"/>
<path d="M29.5312 9.02344L35 14.4922L40.4688 9.02344" stroke="black" stroke-width="4.10156" stroke-miterlimit="10" stroke-linecap="round" stroke-linejoin="round"/>
<path d="M29.5312 60.9766L35 55.5078L40.4688 60.9766" stroke="black" stroke-width="4.10156" stroke-miterlimit="10" stroke-linecap="round" stroke-linejoin="round"/>
<path d="M51.5145 4.95105V18.4855H65.049" stroke="black" stroke-width="4.10156" stroke-miterlimit="10" stroke-linecap="round" stroke-linejoin="round"/>
<path d="M9.78481 60.2151L30.1663 39.8336" stroke="black" stroke-width="4.10156" stroke-miterlimit="10" stroke-linecap="round" stroke-linejoin="round"/>
<path d="M39.8337 30.1663L60.2152 9.78479" stroke="black" stroke-width="4.10156" stroke-miterlimit="10" stroke-linecap="round" stroke-linejoin="round"/>
<path d="M55.5078 35H41.8359" stroke="black" stroke-width="4.10156" stroke-miterlimit="10" stroke-linecap="round" stroke-linejoin="round"/>
<path d="M28.1641 35H14.4922" stroke="black" stroke-width="4.10156" stroke-miterlimit="10" stroke-linecap="round" stroke-linejoin="round"/>
<path d="M35 55.5078V41.8359" stroke="black" stroke-width="4.10156" stroke-miterlimit="10" stroke-linecap="round" stroke-linejoin="round"/>
<path d="M35 28.1641V14.4922" stroke="black" stroke-width="4.10156" stroke-miterlimit="10" stroke-linecap="round" stroke-linejoin="round"/>
</g>
<defs>
<clipPath id="clip0_8_343">
<rect width="70" height="70" fill="white"/>
</clipPath>
</defs>
</svg>
