<svg width="98" height="76" viewBox="0 0 98 76" fill="none" xmlns="http://www.w3.org/2000/svg">
<path d="M71.8667 58.8C69.1605 58.8 66.9667 60.9939 66.9667 63.7001C66.9667 66.4062 69.1605 68.6001 71.8667 68.6001C74.5729 68.6001 76.7667 66.4062 76.7667 63.7001C76.7667 60.9939 74.5729 58.8 71.8667 58.8ZM71.8667 65.3334C70.9646 65.3334 70.2333 64.6021 70.2333 63.7001C70.2333 62.798 70.9646 62.0667 71.8667 62.0667C72.7687 62.0667 73.5 62.798 73.5 63.7001C73.5 64.6021 72.7687 65.3334 71.8667 65.3334Z" fill="#222021"/>
<path d="M17.9667 58.8C15.2605 58.8 13.0667 60.9939 13.0667 63.7001C13.0667 66.4062 15.2605 68.6001 17.9667 68.6001C20.6729 68.6001 22.8667 66.4062 22.8667 63.7001C22.8667 60.9939 20.6729 58.8 17.9667 58.8ZM17.9667 65.3334C17.0646 65.3334 16.3333 64.6021 16.3333 63.7001C16.3333 62.798 17.0646 62.0667 17.9667 62.0667C18.8687 62.0667 19.6 62.798 19.6 63.7001C19.6 64.6021 18.8687 65.3334 17.9667 65.3334Z" fill="#222021"/>
<path d="M87.2772 14.4664C86.5238 12.6277 84.7318 11.4285 82.7447 11.4333H63.7V4.9C63.7 2.19381 61.5062 0 58.8 0H4.9C2.19381 0 0 2.19381 0 4.9V50.6334C0.00495292 52.078 0.65119 53.4459 1.764 54.3672C-0.00584204 56.2658 -0.48101 59.0333 0.554182 61.4136C1.58937 63.7938 3.93774 65.3333 6.53334 65.3334H6.664C7.47135 70.955 12.2874 75.1288 17.9667 75.1288C23.6459 75.1288 28.462 70.955 29.2694 65.3334H60.564C61.3714 70.955 66.1874 75.1288 71.8667 75.1288C77.546 75.1288 82.362 70.955 83.1694 65.3334H93.1001C95.8063 65.3334 98.0001 63.1396 98.0001 60.4334V42.7721C98.0012 41.2783 97.7088 39.7987 97.1393 38.4177L87.2772 14.4664ZM84.2555 15.711L94.1176 39.6639C94.2648 40.0443 94.3833 40.4352 94.4721 40.8334H75.1334C74.2313 40.8334 73.5 40.1021 73.5 39.2V14.7H82.7447C83.4067 14.6997 84.0033 15.099 84.2555 15.711ZM25.9537 55.5334H63.8797C62.0858 57.287 60.9203 59.5834 60.564 62.0667H29.2694C28.9131 59.5834 27.7476 57.287 25.9537 55.5334ZM3.26667 4.9C3.26667 3.99794 3.99794 3.26667 4.9 3.26667H58.8C59.7021 3.26667 60.4334 3.99794 60.4334 4.9V52.2667H4.9C3.99794 52.2667 3.26667 51.5354 3.26667 50.6334V4.9ZM4.22544 61.1079C3.29284 60.1737 3.01414 58.7701 3.51907 57.5505C4.024 56.3308 5.21332 55.535 6.53334 55.5334H9.97967C8.18573 57.287 7.0203 59.5834 6.664 62.0667H6.53334C5.66675 62.0687 4.8355 61.7234 4.22544 61.1079ZM17.9667 71.8667C13.4563 71.8667 9.80001 68.2104 9.80001 63.7C9.80001 59.1897 13.4563 55.5334 17.9667 55.5334C22.477 55.5334 26.1333 59.1897 26.1333 63.7C26.1279 68.2081 22.4748 71.8613 17.9667 71.8667ZM71.8667 71.8667C67.3564 71.8667 63.7 68.2104 63.7 63.7C63.7 59.1897 67.3564 55.5334 71.8667 55.5334C76.377 55.5334 80.0334 59.1897 80.0334 63.7C80.028 68.2081 76.3748 71.8613 71.8667 71.8667ZM93.1001 62.0667H83.1694C82.3582 56.4465 77.5451 52.2734 71.8667 52.2667H63.7V14.7H70.2334V39.2C70.2334 41.9062 72.4272 44.1 75.1334 44.1H94.7334V47.3667H93.1001C92.198 47.3667 91.4667 48.098 91.4667 49C91.4667 49.9021 92.198 50.6334 93.1001 50.6334H94.7334V53.9H93.1001C92.198 53.9 91.4667 54.6313 91.4667 55.5334C91.4667 56.4354 92.198 57.1667 93.1001 57.1667H94.7334V60.4334C94.7334 61.3354 94.0021 62.0667 93.1001 62.0667Z" fill="#222021"/>
<path d="M8.16666 9.80012H13.0667C13.9687 9.80012 14.7 9.06885 14.7 8.16678C14.7 7.26472 13.9687 6.53345 13.0667 6.53345H8.16666C7.26459 6.53345 6.53333 7.26472 6.53333 8.16678C6.53333 9.06885 7.26459 9.80012 8.16666 9.80012Z" fill="#222021"/>
<path d="M19.6 9.80012H55.5334C56.4354 9.80012 57.1667 9.06885 57.1667 8.16678C57.1667 7.26472 56.4354 6.53345 55.5334 6.53345H19.6C18.6979 6.53345 17.9667 7.26472 17.9667 8.16678C17.9667 9.06885 18.6979 9.80012 19.6 9.80012Z" fill="#222021"/>
</svg>
