<svg width="98" height="98" viewBox="0 0 98 98" fill="none" xmlns="http://www.w3.org/2000/svg">
<g clip-path="url(#clip0_9_238)">
<path d="M49 21.2332C33.6649 21.2332 21.2333 33.6648 21.2333 48.9999C21.2333 64.335 33.6649 76.7666 49 76.7666C64.3351 76.7666 76.7667 64.335 76.7667 48.9999C76.7495 33.6719 64.328 21.2504 49 21.2332ZM49 73.4999C35.4691 73.4999 24.5 62.5308 24.5 48.9999C24.5 35.469 35.4691 24.4999 49 24.4999C62.5309 24.4999 73.5 35.469 73.5 48.9999C73.4849 62.5247 62.5248 73.4848 49 73.4999Z" fill="#222021"/>
<path d="M64.1267 39.2477C63.5605 39.0972 62.957 39.2616 62.5453 39.6785L44.1001 58.1238L35.4548 49.4785C34.8159 48.8476 33.7875 48.8509 33.1524 49.4858C32.5175 50.1207 32.5142 51.1493 33.1451 51.7882L42.9451 61.5882C43.2514 61.8947 43.6667 62.0667 44.0999 62.0667C44.533 62.0667 44.9484 61.8947 45.2546 61.5882L64.8546 41.9882C65.2715 41.5765 65.4359 40.973 65.2855 40.4068C65.1352 39.8405 64.6931 39.3981 64.1267 39.2477Z" fill="#222021"/>
<path d="M97.8628 45.5371C97.8059 44.9127 97.3969 44.3756 96.81 44.1549L87.2845 40.5797C87.0324 39.4297 86.7246 38.282 86.3642 37.1495L92.8272 29.2907C93.2263 28.8059 93.3119 28.1352 93.0474 27.5656C92.6104 26.6244 92.084 25.622 91.4348 24.4983C90.7664 23.3428 90.1778 22.4119 89.5844 21.569C89.2231 21.0562 88.6 20.7959 87.9814 20.8991L77.9326 22.5676C77.1382 21.6974 76.3008 20.86 75.4315 20.0657L77.1 10.0178C77.2031 9.39939 76.9426 8.77655 76.43 8.41556C75.5846 7.8199 74.626 7.21448 73.5 6.56447C72.3722 5.91445 71.3706 5.38732 70.4342 4.95264C69.865 4.68811 69.1945 4.77367 68.7101 5.17275L60.8496 11.6352C59.717 11.2756 58.5686 10.9676 57.4186 10.7157L53.8458 1.19074C53.6248 0.60293 53.0867 0.193703 52.4614 0.137238C51.4309 0.0445977 50.2983 0 49 0C47.7017 0 46.5691 0.0445977 45.5388 0.137238C44.9133 0.193703 44.3754 0.60293 44.1544 1.19074L40.5814 10.7157C39.4314 10.9678 38.283 11.2756 37.1504 11.6352L29.2899 5.17275C28.8053 4.77386 28.135 4.6883 27.5658 4.95264C26.6294 5.38732 25.6278 5.91445 24.5 6.56447C23.374 7.21448 22.4152 7.81971 21.5698 8.41556C21.0572 8.77655 20.7967 9.39939 20.8998 10.0178L22.5683 20.0659C21.699 20.8602 20.8616 21.6976 20.0672 22.5678L10.0184 20.8993C9.39977 20.7969 8.77713 21.0572 8.41537 21.5692C7.82201 22.4121 7.23343 23.3429 6.56351 24.5C5.91598 25.622 5.38962 26.6246 4.95245 27.5658C4.68792 28.1352 4.77348 28.8059 5.17256 29.2907L11.6356 37.1495C11.2752 38.282 10.9672 39.4297 10.7153 40.5797L1.18978 44.1551C0.60293 44.3758 0.193895 44.9127 0.137047 45.5373C0.0430664 46.5747 0 47.6753 0 49C0 50.3247 0.0430664 51.4253 0.137238 52.4629C0.194086 53.0873 0.603121 53.6244 1.18997 53.8451L10.7155 57.4205C10.9676 58.5705 11.2754 59.7182 11.6358 60.8507L5.17275 68.7095C4.77367 69.1945 4.68811 69.8656 4.95264 70.4354C5.39134 71.3788 5.91771 72.3814 6.56523 73.5019C7.23362 74.6576 7.8222 75.5882 8.41556 76.4312C8.77674 76.9442 9.39996 77.2045 10.0186 77.1011L20.0674 75.4326C20.8617 76.3028 21.6992 77.1402 22.5685 77.9345L20.9 87.9826C20.7969 88.601 21.0574 89.2238 21.57 89.5848C22.4154 90.1805 23.374 90.7859 24.5002 91.4359C25.628 92.0859 26.6296 92.6131 27.5659 93.0478C28.1354 93.3107 28.8051 93.2254 29.2901 92.8276L37.1506 86.3652C38.2832 86.7248 39.4316 87.0328 40.5816 87.2847L44.1544 96.8095C44.3754 97.3973 44.9135 97.8065 45.5388 97.863C46.5691 97.9554 47.7017 98 49 98C50.2983 98 51.4309 97.9554 52.4612 97.8628C53.0867 97.8063 53.6246 97.3971 53.8456 96.8093L57.4186 87.2843C58.5686 87.0322 59.717 86.7244 60.8496 86.3648L68.7101 92.8272C69.1951 93.2252 69.865 93.3107 70.4342 93.0474C71.3706 92.6127 72.3722 92.0855 73.5 91.4355C74.626 90.7855 75.5848 90.1803 76.4302 89.5844C76.9428 89.2234 77.2033 88.6006 77.1002 87.9822L75.4317 77.9341C76.301 77.1398 77.1384 76.3024 77.9328 75.4322L87.9816 77.1007C88.6002 77.2043 89.2236 76.9438 89.5846 76.4308C90.178 75.5879 90.7666 74.6571 91.4365 73.4998C92.0825 72.3808 92.6089 71.3785 93.0476 70.435C93.3121 69.8652 93.2265 69.1943 92.8274 68.7091L86.3644 60.8503C86.7248 59.7178 87.0328 58.5701 87.2847 57.4202L96.8102 53.8449C97.3971 53.6242 97.8061 53.0873 97.863 52.4627C97.9569 51.4253 98 50.3247 98 49C98 47.6753 97.9569 46.5747 97.8628 45.5371ZM94.6824 51.1549L85.2939 54.6783C84.7629 54.8777 84.3734 55.3384 84.2651 55.8952C83.9491 57.5116 83.522 59.1043 82.9874 60.662C82.8025 61.1981 82.9093 61.7921 83.2698 62.23L89.6388 69.9749C89.3373 70.5657 88.9976 71.1911 88.6085 71.865C88.2065 72.5589 87.8396 73.1618 87.4839 73.7073L77.5817 72.0627C77.0225 71.968 76.4542 72.1718 76.0823 72.6002C75.0023 73.8392 73.839 75.0027 72.6002 76.083C72.1732 76.4555 71.9697 77.0226 72.0627 77.5816L73.7056 87.4836C73.152 87.8432 72.5443 88.2149 71.8663 88.6056C71.1886 88.9972 70.5615 89.3385 69.9747 89.6376L62.229 83.2701C61.7919 82.9095 61.1985 82.8022 60.6628 82.9871C59.1047 83.5217 57.5116 83.9487 55.895 84.2647C55.3373 84.3723 54.8756 84.7623 54.6763 85.2943L51.1545 94.6803C49.8338 94.7505 48.1653 94.7505 46.8446 94.6803L43.3227 85.2943C43.1234 84.7622 42.662 84.3723 42.104 84.2647C40.4874 83.9487 38.8945 83.5217 37.3365 82.9871C36.8007 82.8023 36.2074 82.9095 35.7702 83.2701L28.0249 89.6376C27.4379 89.3387 26.811 88.9972 26.1333 88.6056C25.4555 88.2147 24.8476 87.8432 24.294 87.4836L25.9369 77.5816C26.0299 77.0226 25.8264 76.4555 25.3994 76.083C24.1608 75.0027 22.9975 73.8392 21.9175 72.6002C21.5456 72.172 20.9776 71.9684 20.4181 72.0627L10.5159 73.7073C10.1602 73.1618 9.7933 72.5596 9.39288 71.8665C9.00375 71.1918 8.66228 70.5657 8.36082 69.9749L14.7299 62.2302C15.0903 61.7923 15.1973 61.1983 15.0122 60.6622C14.4776 59.1045 14.0506 57.5116 13.7345 55.8954C13.6262 55.3386 13.2367 54.8779 12.7057 54.6784L3.31726 51.155C3.28204 50.5012 3.26616 49.7968 3.26616 49.0002C3.26616 48.2036 3.28204 47.4992 3.31726 46.8453L12.7057 43.3219C13.2367 43.1225 13.6262 42.6618 13.7345 42.105C14.0506 40.4885 14.4776 38.8959 15.0122 37.3382C15.1971 36.8021 15.0903 36.2081 14.7299 35.7702L8.36082 28.0255C8.66075 27.4362 9.00203 26.8108 9.39116 26.1354C9.79311 25.4415 10.16 24.8386 10.5157 24.2931L20.4177 25.9377C20.977 26.0309 21.5445 25.8274 21.9172 25.4002C22.9971 24.1612 24.1604 22.9977 25.3992 21.9174C25.8263 21.5449 26.0297 20.9777 25.9367 20.4188L24.2937 10.5168C24.8472 10.1572 25.4549 9.78545 26.1329 9.39479C26.8107 9.00318 27.4377 8.6619 28.0246 8.36273L35.7702 14.7302C36.2079 15.0897 36.8007 15.1969 37.3365 15.0133C38.8945 14.4787 40.4874 14.0517 42.104 13.7357C42.6618 13.6281 43.1234 13.238 43.3227 12.7061L46.8446 3.32013C48.1653 3.24989 49.8338 3.24989 51.1545 3.32013L54.6763 12.7061C54.8754 13.2382 55.3371 13.6281 55.895 13.7357C57.5116 14.0517 59.1047 14.4787 60.6628 15.0133C61.1987 15.1969 61.7915 15.0897 62.229 14.7302L69.9745 8.36273C70.5615 8.66171 71.1884 9.00318 71.8662 9.39479C72.5439 9.78564 73.1518 10.1572 73.7054 10.5168L72.0625 20.419C71.9695 20.9779 72.173 21.5451 72.6 21.9175C73.8386 22.9978 75.002 24.1614 76.0821 25.4004C76.4545 25.8278 77.0223 26.0314 77.5816 25.9378L87.4836 24.2933C87.8392 24.8388 88.2061 25.441 88.6066 26.134C88.9974 26.8103 89.3387 27.4364 89.6386 28.0257L83.2696 35.7706C82.9091 36.2085 82.8022 36.8024 82.9872 37.3386C83.5218 38.8962 83.9489 40.4891 84.2649 42.1054C84.3732 42.6622 84.7627 43.1229 85.2937 43.3223L94.6822 46.8457C94.7172 47.4996 94.7333 48.2038 94.7333 49.0004C94.7333 49.797 94.7174 50.501 94.6824 51.1549Z" fill="#222021"/>
</g>
<defs>
<clipPath id="clip0_9_238">
<rect width="98" height="98" fill="white"/>
</clipPath>
</defs>
</svg>
