<svg width="98" height="98" viewBox="0 0 98 98" fill="none" xmlns="http://www.w3.org/2000/svg">
<path d="M59.4141 47.8239L85.4821 21.7575L90.7725 20.6991C91.0264 20.6483 91.2645 20.5378 91.4673 20.3767C91.6701 20.2157 91.8316 20.0088 91.9387 19.773L97.7125 7.06898C97.8508 6.76679 97.8936 6.42961 97.8353 6.10246C97.7769 5.7753 97.6201 5.47373 97.3859 5.23801L92.7619 0.618944C92.5262 0.384692 92.2246 0.227918 91.8975 0.169549C91.5703 0.11118 91.2331 0.153995 90.9309 0.292277L78.2269 6.06121C77.9911 6.16828 77.7842 6.32986 77.6232 6.53262C77.4622 6.73539 77.3516 6.97353 77.3008 7.22741L76.244 12.5178L50.1711 38.589L41.5961 30.0418C41.3812 29.8298 41.2308 29.5612 41.1626 29.2671C41.0944 28.9731 41.111 28.6657 41.2106 28.3807C42.4845 24.8209 42.7847 20.9854 42.0803 17.2707C41.3759 13.556 39.6923 10.0967 37.2036 7.25039C34.7149 4.40404 31.5113 2.27384 27.9239 1.07989C24.3364 -0.11406 20.4952 -0.328448 16.7972 0.458877C16.2304 0.580188 15.707 0.852505 15.2823 1.247C14.8576 1.64149 14.5475 2.14348 14.3848 2.69981C14.2145 3.26742 14.2005 3.87046 14.3442 4.44536C14.488 5.02027 14.7841 5.54576 15.2014 5.96648L24.6927 15.4561C24.8448 15.6079 24.9655 15.7881 25.0479 15.9865C25.1302 16.185 25.1726 16.3977 25.1726 16.6125C25.1726 16.8274 25.1302 17.0401 25.0479 17.2385C24.9655 17.437 24.8448 17.6172 24.6927 17.7689L17.7674 24.6943C17.6157 24.8464 17.4354 24.9671 17.237 25.0494C17.0386 25.1317 16.8258 25.1741 16.611 25.1741C16.3962 25.1741 16.1834 25.1317 15.985 25.0494C15.7866 24.9671 15.6063 24.8464 15.4546 24.6943L5.9731 15.2095C5.5519 14.7929 5.0264 14.4973 4.45167 14.3536C3.87693 14.2099 3.27413 14.2235 2.70644 14.3928C2.15001 14.554 1.64745 14.8625 1.25186 15.2857C0.85626 15.7089 0.582317 16.2311 0.45897 16.7971C-0.330486 20.4983 -0.116423 24.3431 1.079 27.9338C2.27442 31.5244 4.40776 34.7303 7.2582 37.2196C10.1086 39.709 13.5726 41.3912 17.2915 42.0923C21.0104 42.7934 24.849 42.4879 28.4102 41.2073C28.6915 41.1112 28.9943 41.0969 29.2834 41.166C29.5725 41.2351 29.8361 41.3847 30.0435 41.5976L35.4646 46.9876C34.7347 47.3103 34.0704 47.7643 33.5046 48.327L1.49777 80.3338C0.579161 81.2527 0.0631161 82.4988 0.0631161 83.7981C0.0631161 85.0974 0.579161 86.3435 1.49777 87.2624L10.7359 96.5022C11.1909 96.9572 11.7311 97.3183 12.3257 97.5646C12.9202 97.8109 13.5575 97.9376 14.201 97.9376C14.8446 97.9376 15.4818 97.8109 16.0764 97.5646C16.6709 97.3183 17.2111 96.9572 17.6661 96.5022L49.6664 64.5019C50.2355 63.929 50.6935 63.2556 51.0172 62.5158L84.1167 95.5287C85.6487 97.0562 87.7238 97.9143 89.8872 97.915C90.0114 97.915 90.1355 97.915 90.2596 97.9068C91.4019 97.8516 92.5202 97.5594 93.5434 97.0488C94.5667 96.5382 95.4725 95.8203 96.2033 94.9407C97.4754 93.3147 98.103 91.2766 97.9659 89.2167C97.8287 87.1568 96.9365 85.2199 95.4602 83.7769L59.4141 47.8239ZM78.9031 14.4778C79.13 14.2491 79.285 13.9589 79.349 13.6431L80.3404 8.68761L91.2527 3.72881L94.2711 6.74721L89.3123 17.6595L84.3551 18.6509C84.0396 18.7143 83.7498 18.8694 83.5221 19.0968L55.958 46.661L55.9449 46.6708L55.9351 46.6838L48.51 54.109L43.8909 49.4899L51.3177 42.0631L51.3324 42.0533V42.0403L78.9031 14.4778ZM27.3012 38.135C24.2922 39.2177 21.0486 39.477 17.9059 38.886C14.7631 38.295 11.8353 36.8752 9.42519 34.7734C7.0151 32.6715 5.21025 29.964 4.19731 26.9308C3.18436 23.8977 3.0001 20.6489 3.66357 17.5207L13.1532 27.012C14.0733 27.9296 15.3197 28.4449 16.6192 28.4449C17.9186 28.4449 19.165 27.9296 20.0851 27.012L27.0104 20.0866C27.4658 19.6316 27.827 19.0913 28.0734 18.4966C28.3199 17.9019 28.4467 17.2645 28.4467 16.6207C28.4467 15.977 28.3199 15.3395 28.0734 14.7448C27.827 14.1501 27.4658 13.6098 27.0104 13.1548L17.4767 3.65531C20.6055 2.98869 23.8556 3.16956 26.8912 4.17924C29.9267 5.18892 32.6376 6.99079 34.7438 9.39869C36.85 11.8066 38.2751 14.7332 38.8719 17.8761C39.4686 21.019 39.2154 24.2643 38.1383 27.2766C37.8292 28.1442 37.7726 29.0818 37.975 29.9803C38.1774 30.8789 38.6305 31.7016 39.2817 32.353L47.8567 40.8986L41.4132 47.3421C40.8921 47.0339 40.3301 46.8008 39.7439 46.6495L32.3465 39.2848C31.7008 38.635 30.8838 38.1819 29.9906 37.9784C29.0974 37.7748 28.1647 37.8291 27.3012 38.135ZM20.8136 88.7373L9.26427 77.188L13.2088 73.2419L24.7597 84.7912L20.8136 88.7373ZM15.3533 94.1926C15.2016 94.3445 15.0215 94.465 14.8232 94.5471C14.6249 94.6293 14.4124 94.6717 14.1978 94.6717C13.9831 94.6717 13.7706 94.6293 13.5723 94.5471C13.374 94.465 13.1939 94.3445 13.0422 94.1926L3.8073 84.9529C3.5011 84.6466 3.32908 84.2312 3.32908 83.7981C3.32908 83.365 3.5011 82.9496 3.8073 82.6433L6.95474 79.4975L18.504 91.0468L15.3533 94.1926ZM47.3569 62.1923L27.0692 82.4833L15.5167 70.9323L35.8076 50.643C36.43 50.0495 37.257 49.7184 38.1171 49.7184C38.9772 49.7184 39.8042 50.0495 40.4266 50.643L47.3569 57.5733C47.9693 58.1859 48.3133 59.0166 48.3133 59.8828C48.3133 60.749 47.9693 61.5798 47.3569 62.1923ZM93.6896 92.8566C93.2549 93.3851 92.7145 93.8169 92.1031 94.1244C91.4918 94.432 90.8229 94.6084 90.1394 94.6423C89.4559 94.6763 88.7728 94.5671 88.1339 94.3218C87.4951 94.0764 86.9145 93.7003 86.4295 93.2175L51.3438 58.2283C51.193 57.6496 50.9621 57.0949 50.6578 56.5802L57.1046 50.1334L93.1539 86.088C94.0593 86.9533 94.6144 88.1216 94.7132 89.3701C94.812 90.6185 94.4476 91.8596 93.6896 92.8566Z" fill="#222021"/>
</svg>
