<svg width="86" height="86" viewBox="0 0 86 86" fill="none" xmlns="http://www.w3.org/2000/svg">
<path d="M71.0368 81.6999H14.9639C14.2303 81.6999 13.6357 81.1053 13.6357 80.3716V14.0993C13.6357 13.3657 14.2303 12.7711 14.9639 12.7711H71.0368C71.7705 12.7711 72.3651 13.3657 72.3651 14.0993V80.3716C72.3651 81.1053 71.7705 81.6999 71.0368 81.6999ZM16.2923 79.0434H69.7084V15.4277H16.2923V79.0434Z" fill="#FF43AF"/>
<path d="M28.6856 81.6999H14.9639C14.2303 81.6999 13.6357 81.1053 13.6357 80.3716V14.0993C13.6357 13.3657 14.2303 12.7711 14.9639 12.7711H28.6854C29.4191 12.7711 30.0138 13.3657 30.0138 14.0993V80.3716C30.0139 81.1053 29.4191 81.6999 28.6856 81.6999ZM16.2923 79.0434H27.3572V15.4277H16.2923V79.0434Z" fill="#FF43AF"/>
<path d="M75.2045 15.4275H10.7955C10.0617 15.4275 9.46729 14.8329 9.46729 14.0992V5.62816C9.46729 4.89441 10.0619 4.2998 10.7955 4.2998H75.2045C75.9382 4.2998 76.5328 4.89441 76.5328 5.62816V14.0992C76.5328 14.8329 75.9382 15.4275 75.2045 15.4275ZM12.1238 12.771H73.8763V6.95634H12.1238V12.771Z" fill="#FF43AF"/>
<path d="M23.3629 50.11C22.6293 50.11 22.0347 49.5154 22.0347 48.7816V39.1493C22.0347 38.4155 22.6293 37.8209 23.3629 37.8209C24.0966 37.8209 24.6912 38.4155 24.6912 39.1493V48.7816C24.6912 49.5154 24.0966 50.11 23.3629 50.11Z" fill="#FF43AF"/>
<path d="M71.0369 81.6999H57.3142C56.5804 81.6999 55.9858 81.1053 55.9858 80.3716V14.0993C55.9858 13.3657 56.5804 12.7711 57.3142 12.7711H71.0369C71.7706 12.7711 72.3652 13.3657 72.3652 14.0993V80.3716C72.3652 81.1053 71.7706 81.6999 71.0369 81.6999ZM58.6427 79.0434H69.7087V15.4277H58.6427V79.0434Z" fill="#FF43AF"/>
<path d="M62.6374 50.11C61.9037 50.11 61.3091 49.5154 61.3091 48.7816V39.1493C61.3091 38.4155 61.9037 37.8209 62.6374 37.8209C63.3712 37.8209 63.9658 38.4155 63.9658 39.1493V48.7816C63.9658 49.5154 63.3712 50.11 62.6374 50.11Z" fill="#FF43AF"/>
<path d="M75.2045 81.7001H10.7955C10.0617 81.7001 9.46729 81.1055 9.46729 80.3718C9.46729 79.6382 10.0619 79.0436 10.7955 79.0436H75.2045C75.9382 79.0436 76.5328 79.6382 76.5328 80.3718C76.5328 81.1055 75.9382 81.7001 75.2045 81.7001Z" fill="#FF43AF"/>
<path d="M38.1287 24.9253C37.6851 24.9253 37.2513 24.7033 36.9997 24.2985L34.6912 20.5845L28.0257 16.7667C27.3892 16.4013 27.1686 15.5898 27.5335 14.9538C27.8988 14.3167 28.7098 14.0967 29.3458 14.4608L36.3024 18.4457C36.4933 18.5556 36.6543 18.7103 36.7704 18.897L39.2558 22.8955C39.6433 23.5192 39.4519 24.3379 38.8287 24.7249C38.6108 24.861 38.3686 24.9253 38.1287 24.9253Z" fill="#FF43AF"/>
<path d="M42.7952 29.6636H33.4592C32.7255 29.6636 32.1309 29.069 32.1309 28.3354C32.1309 24.9585 34.8208 22.2688 38.1275 22.2688C41.4338 22.2688 44.1236 24.9585 44.1236 28.2649C44.1236 28.9985 43.529 29.6636 42.7952 29.6636ZM35.0334 27.0069H41.2085C40.7037 25.773 39.5129 24.9252 38.1275 24.9252C36.7307 24.9253 35.531 25.7876 35.0334 27.0069Z" fill="#FF43AF"/>
<path d="M38.1275 39.626C37.3939 39.626 36.7993 39.0314 36.7993 38.2976V33.1017C36.7993 32.3679 37.3939 31.7733 38.1275 31.7733C38.8613 31.7733 39.4559 32.3679 39.4559 33.1017V38.2976C39.4559 39.0314 38.8613 39.626 38.1275 39.626Z" fill="#FF43AF"/>
<path d="M42.7956 42.0344C42.0619 42.0344 41.4673 41.4398 41.4673 40.706V35.5101C41.4673 34.7763 42.0619 34.1819 42.7956 34.1819C43.5294 34.1819 44.124 34.7765 44.124 35.5101V40.706C44.124 41.4398 43.5294 42.0344 42.7956 42.0344Z" fill="#FF43AF"/>
<path d="M33.4592 43.1747C32.7255 43.1747 32.1309 42.5801 32.1309 41.8465V36.7772C32.1309 36.0436 32.7255 35.449 33.4592 35.449C34.193 35.449 34.7876 36.0436 34.7876 36.7772V41.8465C34.7874 42.5803 34.1928 43.1747 33.4592 43.1747Z" fill="#FF43AF"/>
</svg>
