<svg width="78" height="78" viewBox="0 0 78 78" fill="none" xmlns="http://www.w3.org/2000/svg">
<path d="M22.6658 15.0833H7.172C5.36786 15.0833 3.8999 13.6158 3.8999 11.8115V8.03711C3.8999 6.23297 5.36786 4.76501 7.172 4.76501H22.6658C24.4699 4.76501 25.9379 6.23282 25.9379 8.03711V11.8115C25.9379 13.6158 24.4699 15.0833 22.6658 15.0833ZM7.172 7.53495C6.89526 7.53495 6.66984 7.76021 6.66984 8.03711V11.8115C6.66984 12.0883 6.8951 12.3134 7.172 12.3134H22.6658C22.9425 12.3134 23.1679 12.0884 23.1679 11.8115V8.03711C23.1679 7.76037 22.9425 7.53495 22.6658 7.53495H7.172Z" fill="#FF43AF"/>
<path d="M29.7092 73.2348C16.5183 73.2348 5.78662 62.5031 5.78662 49.3117V13.6982C5.78662 12.9331 6.40656 12.3134 7.17174 12.3134H22.6655C23.4305 12.3134 24.0503 12.9331 24.0503 13.6982V50.6628C24.0503 52.2029 24.659 53.642 25.7637 54.7149C26.8682 55.7874 28.3141 56.3489 29.868 56.3093C32.8796 56.222 35.3383 53.5654 35.3492 50.387L35.3681 44.7575C35.3681 38.4129 40.5334 33.2478 46.8826 33.2478H59.9756C60.3927 33.2478 60.7871 33.4353 61.0501 33.759C61.3134 34.0821 61.4165 34.5069 61.3314 34.9153C61.2975 35.078 61.2805 35.2421 61.2805 35.4035V47.1233C61.2805 47.4723 61.3674 47.8254 61.5388 48.1718C61.7512 48.6011 61.7265 49.1095 61.4735 49.5162C61.2211 49.9231 60.776 50.1705 60.2974 50.1705H53.6175C53.1634 62.9658 42.6129 73.2348 29.7092 73.2348ZM8.55656 15.0833V49.3119C8.55656 60.9758 18.0457 70.465 29.7092 70.465C41.3732 70.465 50.8624 60.9758 50.8624 49.3119C50.8624 48.2584 51.7199 47.4009 52.7734 47.4009H58.5179C58.5129 47.3084 58.5103 47.216 58.5103 47.1235V36.0177H46.8825C42.0607 36.0177 38.1379 39.9403 38.1379 44.762L38.119 50.3959C38.1033 55.053 34.4376 58.9478 29.9482 59.0779C27.6525 59.146 25.4799 58.3012 23.8335 56.7016C22.1871 55.1026 21.2804 52.9576 21.2804 50.6627V15.0833H8.55656Z" fill="#FF43AF"/>
<path d="M63.6695 52.2825C60.8248 52.2825 58.5103 49.9682 58.5103 47.1236V35.4037C58.5103 32.5591 60.8248 30.2445 63.6695 30.2445C66.5143 30.2445 68.8289 32.5591 68.8289 35.4037V47.1236C68.829 49.9682 66.5145 52.2825 63.6695 52.2825ZM63.6695 33.0143C62.3522 33.0143 61.2802 34.0863 61.2802 35.4036V47.1234C61.2802 48.4407 62.3522 49.5124 63.6695 49.5124C64.9869 49.5124 66.0589 48.4407 66.0589 47.1234V35.4036C66.0591 34.0863 64.9871 33.0143 63.6695 33.0143Z" fill="#FF43AF"/>
<path d="M67.4442 61.3067C67.1557 61.3067 66.8712 61.29 66.5916 61.2571C64.3727 60.9997 62.521 59.6702 61.5135 57.61C60.4518 55.4383 60.561 52.9186 61.8052 50.869L62.2394 50.1539C62.5068 49.7121 62.9994 49.4508 63.5134 49.4909C63.5821 49.4948 63.6491 49.5031 63.7159 49.5126C64.9873 49.5126 66.0593 48.4409 66.0593 47.1236V44.2518C66.0593 43.6306 66.4727 43.0854 67.071 42.9182C67.6719 42.7524 68.3062 43.0021 68.628 43.5331L73.0828 50.869C74.327 52.9184 74.4361 55.4387 73.3745 57.6103C72.3667 59.6701 70.5152 60.9997 68.2939 61.2575C68.0168 61.2901 67.7323 61.3067 67.4442 61.3067ZM64.204 52.2549C63.4206 53.5457 63.3565 55.0735 64.0022 56.3933C64.5869 57.5894 65.6477 58.3594 66.9133 58.5059C67.2635 58.5474 67.6261 58.5469 67.9727 58.5063C69.2403 58.3594 70.3013 57.5894 70.886 56.3936C71.5315 55.0735 71.4676 53.5457 70.7152 52.3064L68.5628 48.7619C67.9307 50.6436 66.2414 52.0445 64.204 52.2549Z" fill="#FF43AF"/>
<path d="M72.7099 73.2348H5.73735C4.97233 73.2348 4.35254 72.6148 4.35254 71.8497C4.35254 71.0846 4.97233 70.4648 5.73735 70.4648H72.7099C73.4749 70.4648 74.0948 71.0846 74.0948 71.8497C74.0948 72.6148 73.4749 73.2348 72.7099 73.2348Z" fill="#FF43AF"/>
<path d="M13.613 42.6485C12.848 42.6485 12.228 42.0287 12.228 41.2637V13.6982C12.228 12.9331 12.848 12.3134 13.613 12.3134C14.378 12.3134 14.9978 12.9331 14.9978 13.6982V41.2635C14.9978 42.0287 14.378 42.6485 13.613 42.6485Z" fill="#FF43AF"/>
</svg>
