<svg width="71" height="71" viewBox="0 0 71 71" fill="none" xmlns="http://www.w3.org/2000/svg">
<g clip-path="url(#clip0_36_924)">
<path d="M58.19 70.3333H8.31758C6.20231 70.3333 4.48145 68.6119 4.48145 66.4967C4.48145 64.3819 6.20231 62.6605 8.31758 62.6605H58.19C60.3052 62.6605 62.0261 64.3819 62.0261 66.4967C62.0261 68.6119 60.3052 70.3333 58.19 70.3333ZM8.31758 65.2179C7.61195 65.2179 7.03887 65.791 7.03887 66.4967C7.03887 67.2028 7.61195 67.7759 8.31758 67.7759H58.19C58.8961 67.7759 59.4687 67.2028 59.4687 66.4967C59.4687 65.791 58.8961 65.2179 58.19 65.2179H8.31758Z" fill="#FF43AF"/>
<path d="M42.8446 65.218H14.7113C14.0052 65.218 13.4326 64.6465 13.4326 63.9393V47.3155C13.4326 46.6083 14.0052 46.0363 14.7113 46.0363H44.1233C44.4801 46.0363 44.8187 46.1849 45.0618 46.4457C45.3033 46.7081 45.4261 47.0585 45.3982 47.4137L44.119 64.038C44.068 64.7039 43.5116 65.218 42.8446 65.218ZM15.99 62.6606H41.6603L42.7421 48.5942H15.99V62.6606Z" fill="#FF43AF"/>
<path d="M44.1235 48.5941H14.7115C5.27278 48.5941 1.92334 37.5724 1.92334 28.1337C1.92334 27.4265 2.49643 26.855 3.20259 26.855H67.1413C67.847 26.855 68.4201 27.4265 68.4201 28.1337C68.4201 40.6219 54.0301 48.5941 44.1235 48.5941ZM4.50008 29.4124C4.80326 39.5568 8.74349 46.0362 14.7115 46.0362H44.1235C52.43 46.0362 64.819 39.457 65.7999 29.4124H4.50008Z" fill="#FF43AF"/>
<path d="M18.5478 29.4124H5.76016C5.05399 29.4124 4.48145 28.8409 4.48145 28.1337V24.297C4.48145 22.8869 5.62815 21.7396 7.03887 21.7396H17.2691C18.6798 21.7396 19.8265 22.8869 19.8265 24.297V28.1337C19.8265 28.8409 19.254 29.4124 18.5478 29.4124ZM7.03887 26.855H17.2691V24.297H7.03887V26.855Z" fill="#FF43AF"/>
<path d="M14.7115 24.297H9.59609C8.89047 24.297 8.31738 23.7256 8.31738 23.0183V11.87C8.31738 5.63097 13.0271 0.428658 19.0402 0.0262105C22.2587 -0.186282 25.3291 0.90462 27.6821 3.10413C30.0045 5.2752 31.3352 8.3381 31.3352 11.5094V14.0668C31.3352 16.1821 29.6144 17.9035 27.4991 17.9035C25.3839 17.9035 23.663 16.1821 23.663 14.0668V11.5094C23.663 10.4314 23.2026 9.3968 22.4004 8.66811C21.5885 7.93136 20.54 7.58633 19.4389 7.69096C17.5055 7.88145 15.9902 9.6592 15.9902 11.7385V23.0183C15.9902 23.7256 15.4171 24.297 14.7115 24.297ZM10.8748 21.7396H13.4328V11.7385C13.4328 8.35742 15.9617 5.46355 19.191 5.14749C20.9864 4.97471 22.7856 5.56443 24.1191 6.77392C25.4541 7.98502 26.2204 9.71125 26.2204 11.5094V14.0668C26.2204 14.773 26.793 15.3455 27.4991 15.3455C28.2047 15.3455 28.7778 14.773 28.7778 14.0668V11.5094C28.7778 9.04372 27.7422 6.66177 25.9349 4.97203C24.1051 3.26135 21.7141 2.40816 19.2114 2.57988C14.536 2.89164 10.8748 6.97246 10.8748 11.87V21.7396Z" fill="#FF43AF"/>
<path d="M49.2383 38.364H4.25478C3.54862 38.364 2.97607 37.792 2.97607 37.0853C2.97607 36.378 3.54862 35.806 4.25478 35.806H49.2383C49.9444 35.806 50.517 36.378 50.517 37.0853C50.517 37.792 49.9444 38.364 49.2383 38.364Z" fill="#FF43AF"/>
<path d="M64.1745 38.364H58.1898C57.4842 38.364 56.9111 37.792 56.9111 37.0853C56.9111 36.378 57.4842 35.806 58.1898 35.806H64.1745C64.8807 35.806 65.4532 36.378 65.4532 37.0853C65.4532 37.792 64.8807 38.364 64.1745 38.364Z" fill="#FF43AF"/>
</g>
<defs>
<clipPath id="clip0_36_924">
<rect width="70.3333" height="70.3333" fill="white"/>
</clipPath>
</defs>
</svg>
