<svg width="76" height="76" viewBox="0 0 76 76" fill="none" xmlns="http://www.w3.org/2000/svg">
<path d="M64.5703 75.9999H11.3705C9.27502 75.9999 7.57031 74.2952 7.57031 72.1997V69.6478C7.57031 69.0321 8.01389 68.505 8.62039 68.4C28.0953 65.0126 47.845 65.0126 67.3216 68.4C67.927 68.505 68.3705 69.0321 68.3705 69.6478V72.1997C68.3705 74.2952 66.6653 75.9999 64.5703 75.9999ZM10.1036 70.7165V72.1997C10.1036 72.8978 10.6713 73.4666 11.3705 73.4666H64.5703C65.2684 73.4666 65.8372 72.8978 65.8372 72.1997V70.7165C47.3411 67.6196 28.6009 67.6196 10.1036 70.7165Z" fill="#FF43AF"/>
<path d="M18.9702 12.6664H16.437C14.342 12.6664 12.6367 10.9617 12.6367 8.86676C12.6367 6.77182 14.342 5.06653 16.437 5.06653H18.9702C21.0652 5.06653 22.7699 6.77182 22.7699 8.86676C22.7699 10.9617 21.0652 12.6664 18.9702 12.6664ZM16.437 7.59982C15.7377 7.59982 15.17 8.16864 15.17 8.86676C15.17 9.5643 15.7377 10.1331 16.437 10.1331H18.9702C19.6695 10.1331 20.2366 9.5643 20.2366 8.86676C20.2366 8.16864 19.6695 7.59982 18.9702 7.59982H16.437Z" fill="#FF43AF"/>
<path d="M29.1038 44.3336C28.4045 44.3336 27.8374 43.7659 27.8374 43.0667C27.8374 37.4794 32.3833 32.9335 37.9706 32.9335C38.6699 32.9335 39.2369 33.5011 39.2369 34.1998C39.2369 34.8991 38.6699 35.4668 37.9706 35.4668C33.7801 35.4668 30.3707 38.8756 30.3707 43.0667C30.3707 43.7659 29.803 44.3336 29.1038 44.3336Z" fill="#FF43AF"/>
<path d="M56.2841 51.4546C55.7901 51.4546 55.2949 51.3607 54.8246 51.1734L49.5882 49.0796C48.1734 48.5137 47.4225 47.0114 47.8011 45.5067C48.0012 44.7071 48.1038 43.8878 48.1038 43.0667C48.1038 42.2463 48.0012 41.4264 47.8011 40.6285C47.4225 39.1239 48.1734 37.6215 49.5882 37.0568L54.8246 34.9612C55.8811 34.5385 57.068 34.5942 58.0816 35.1161C59.105 35.6431 59.8483 36.5877 60.122 37.7091C60.5528 39.4619 60.7703 41.2658 60.7703 43.0667C60.7703 44.8683 60.5528 46.6716 60.1232 48.4262C59.8495 49.547 59.105 50.4921 58.0827 51.0192C57.5191 51.3079 56.9022 51.4546 56.2841 51.4546ZM56.2864 37.211C56.1119 37.211 55.9368 37.2452 55.7669 37.3125L50.531 39.4074C50.3077 39.4961 50.1924 39.7495 50.2585 40.0093C50.5089 41.0095 50.6371 42.0381 50.6371 43.0667C50.6371 44.0954 50.5089 45.124 50.2585 46.1248C50.1924 46.384 50.3077 46.6374 50.531 46.7272L55.7669 48.821C56.1472 48.9747 56.5589 48.9532 56.9236 48.7671C57.2936 48.5769 57.5632 48.2336 57.6635 47.8243C58.0433 46.2663 58.237 44.6653 58.237 43.0667C58.237 41.4681 58.0433 39.8672 57.6624 38.3104C57.562 37.9016 57.2924 37.5583 56.9225 37.3681C56.7207 37.2632 56.5044 37.211 56.2864 37.211Z" fill="#FF43AF"/>
<path d="M37.9706 63.3337C26.7948 63.3337 17.7036 54.2413 17.7036 43.0668C17.7036 31.8922 26.7948 22.8004 37.9706 22.8004C46.2964 22.8004 53.6783 27.8021 56.7792 35.544C56.9045 35.856 56.8992 36.2039 56.7676 36.5146C56.636 36.8237 56.3855 37.0667 56.0736 37.1919L51.3682 39.0729C50.7182 39.3303 49.9824 39.0172 49.7226 38.369C47.7796 33.5273 43.1664 30.4003 37.9706 30.4003C30.9859 30.4003 25.3035 36.0827 25.3035 43.0668C25.3035 50.0515 30.9859 55.7332 37.9706 55.7332C43.1664 55.7332 47.7796 52.6062 49.7215 47.7663C49.9812 47.1175 50.7182 46.8038 51.3665 47.0618L56.0724 48.9428C56.3855 49.0681 56.6348 49.3116 56.7665 49.6206C56.8981 49.9297 56.9021 50.2793 56.778 50.5907C53.6783 58.3315 46.2964 63.3337 37.9706 63.3337ZM37.9706 25.3337C28.1917 25.3337 20.2369 33.2885 20.2369 43.0668C20.2369 52.8457 28.1917 60.8004 37.9706 60.8004C44.8306 60.8004 50.9577 56.919 53.9154 50.8087L51.5543 49.8653C48.9868 55.0079 43.7834 58.2671 37.9706 58.2671C29.5891 58.2671 22.7702 51.4483 22.7702 43.0668C22.7702 34.6853 29.5891 27.867 37.9706 27.867C43.7834 27.867 48.9868 31.1263 51.5543 36.2688L53.9154 35.3248C50.9577 29.2145 44.8306 25.3337 37.9706 25.3337Z" fill="#FF43AF"/>
<path d="M37.9704 18.9884C28.1637 18.9884 18.357 18.1424 8.62039 16.4487C8.01389 16.3426 7.57031 15.8156 7.57031 15.1998V3.80023C7.57031 1.70471 9.27502 0 11.3705 0H64.5703C66.6653 0 68.3705 1.70471 68.3705 3.80023V15.1998C68.3705 15.8156 67.927 16.3426 67.3205 16.4476C57.5833 18.1413 47.7766 18.9884 37.9704 18.9884ZM10.1036 14.1311C28.6009 17.2292 47.3411 17.2292 65.8372 14.1311V3.80023C65.8372 3.10211 65.2684 2.53329 64.5703 2.53329H11.3705C10.6713 2.53329 10.1036 3.10211 10.1036 3.80023V14.1311Z" fill="#FF43AF"/>
<path d="M64.5703 76H11.3705C9.27502 76 7.57031 74.2953 7.57031 72.1998V3.80023C7.57031 1.70471 9.27502 0 11.3705 0H64.5703C66.6653 0 68.3705 1.70471 68.3705 3.80023V72.1998C68.3705 74.2953 66.6653 76 64.5703 76ZM11.3705 2.53329C10.6713 2.53329 10.1036 3.10211 10.1036 3.80023V72.1998C10.1036 72.8979 10.6713 73.4667 11.3705 73.4667H64.5703C65.2684 73.4667 65.8372 72.8979 65.8372 72.1998V3.80023C65.8372 3.10211 65.2684 2.53329 64.5703 2.53329H11.3705Z" fill="#FF43AF"/>
<path d="M26.5703 18.5947C26.5425 18.5947 26.5135 18.5935 26.4857 18.5924C20.4942 18.1894 14.4825 17.4687 8.62039 16.4487C8.01389 16.3426 7.57031 15.8156 7.57031 15.1998V3.80023C7.57031 1.70471 9.27502 0 11.3705 0H26.5703C27.2696 0 27.8372 0.567658 27.8372 1.26694V17.3278C27.8372 17.6791 27.6911 18.0143 27.4354 18.2526C27.2 18.4729 26.891 18.5947 26.5703 18.5947ZM10.1036 14.1311C15.1047 14.9667 20.2055 15.5825 25.3034 15.9675V2.53329H11.3705C10.6713 2.53329 10.1036 3.10211 10.1036 3.80023V14.1311Z" fill="#FF43AF"/>
<path d="M44.3034 7.59982H31.637C30.9377 7.59982 30.3706 7.03275 30.3706 6.33347C30.3706 5.63419 30.9377 5.06653 31.637 5.06653H44.3034C45.0027 5.06653 45.5704 5.63419 45.5704 6.33347C45.5704 7.03275 45.0027 7.59982 44.3034 7.59982Z" fill="#FF43AF"/>
<path d="M44.3034 12.6664H31.637C30.9377 12.6664 30.3706 12.0993 30.3706 11.4C30.3706 10.7007 30.9377 10.1331 31.637 10.1331H44.3034C45.0027 10.1331 45.5704 10.7007 45.5704 11.4C45.5704 12.0993 45.0027 12.6664 44.3034 12.6664Z" fill="#FF43AF"/>
<path d="M60.7703 12.6664H55.7037C54.3069 12.6664 53.1704 11.5305 53.1704 10.1331V7.59982C53.1704 6.203 54.3069 5.06653 55.7037 5.06653H60.7703C62.1677 5.06653 63.3036 6.203 63.3036 7.59982V10.1331C63.3036 11.5305 62.1677 12.6664 60.7703 12.6664ZM55.7037 7.59982V10.1331H60.772L60.7703 7.59982H55.7037Z" fill="#FF43AF"/>
<path d="M49.3705 12.6664C48.6712 12.6664 48.1035 12.0993 48.1035 11.4001V6.33347C48.1035 5.63419 48.6712 5.06653 49.3705 5.06653C50.0692 5.06653 50.6368 5.63419 50.6368 6.33347V11.4001C50.6368 12.0993 50.0692 12.6664 49.3705 12.6664Z" fill="#FF43AF"/>
</svg>
