<svg width="76" height="76" viewBox="0 0 76 76" fill="none" xmlns="http://www.w3.org/2000/svg">
<path d="M69.0909 74.8485H65.0606C63.9091 74.8485 62.7576 74.2727 62.0667 73.4666L57.3455 68.2848C56.8849 67.8242 57 67.1333 57.4606 66.6727C57.9212 66.2121 58.6121 66.3272 59.0727 66.7879L63.794 71.9697C64.0243 72.3151 64.6 72.5454 65.0606 72.5454H69.0909C70.0121 72.5454 70.8182 71.7394 70.8182 70.8182C70.8182 69.8969 70.0121 69.0909 69.0909 69.0909H66.3273C65.9818 69.0909 65.7515 68.9757 65.5212 68.7454L63.103 66.2121C62.6424 65.7515 62.6424 65.0606 63.103 64.6C63.5636 64.1394 64.2546 64.1394 64.7152 64.6L66.7879 66.7879H69.0909C71.394 66.7879 73.1212 68.5151 73.1212 70.8182C73.1212 73.1212 71.394 74.8485 69.0909 74.8485Z" fill="#FF43AF"/>
<path d="M11.1695 74.8483H7.13919C4.83616 74.8483 3.10889 73.121 3.10889 70.818C3.10889 68.515 4.83616 66.7877 7.13919 66.7877H9.55737L11.5149 64.5998C11.9756 64.1392 12.6665 64.1392 13.1271 64.4846C13.5877 64.9453 13.5877 65.6362 13.2422 66.0968L10.9392 68.6301C10.7089 68.9756 10.3634 69.0907 10.018 69.0907H7.13919C6.21798 69.0907 5.41192 69.8968 5.41192 70.818C5.41192 71.7392 6.21798 72.5453 7.13919 72.5453H11.1695C11.6301 72.5453 12.0907 72.3149 12.321 72.0846L17.0422 66.9028C17.5028 66.4422 18.1937 66.4422 18.6543 66.7877C19.1149 67.2483 19.1149 67.9392 18.7695 68.3998L14.0483 73.5816C13.4725 74.2725 12.321 74.8483 11.1695 74.8483Z" fill="#FF43AF"/>
<path d="M58.7272 68.7456H17.1575C14.1636 68.7456 11.3999 66.788 10.3636 64.0244L4.8363 48.3638C4.606 47.788 4.95145 47.0971 5.52721 46.8668C6.10297 46.6365 6.79387 46.982 7.02418 47.5577L12.5514 63.1032C13.2424 65.0608 15.1999 66.3274 17.2727 66.3274H58.7272C60.7999 66.3274 62.6424 65.0608 63.4484 62.988L69.0908 47.6729C69.3211 47.0971 70.0121 46.7517 70.5878 46.982C71.1636 47.2123 71.509 47.9032 71.2787 48.4789L65.6363 64.0244C64.4848 66.9032 61.7211 68.7456 58.7272 68.7456Z" fill="#FF43AF"/>
<path d="M70.3575 49.1698H57.3454C56.6545 49.1698 56.1938 48.7092 56.1938 48.0183C56.1938 47.3273 56.6545 46.8667 57.3454 46.8667H70.3575C71.509 46.8667 72.3151 46.0607 72.3151 44.9092C72.3151 43.7577 71.509 42.9516 70.3575 42.9516H57.3454C56.6545 42.9516 56.1938 42.491 56.1938 41.8001C56.1938 41.1092 56.6545 40.6486 57.3454 40.6486H70.3575C72.6605 40.6486 74.6181 42.6061 74.6181 44.9092C74.6181 47.2122 72.6605 49.1698 70.3575 49.1698Z" fill="#FF43AF"/>
<path d="M42.8364 49.1697H5.64244C3.33941 49.1697 1.38184 47.2121 1.38184 44.909C1.38184 42.606 3.33941 40.6484 5.64244 40.6484H42.7212C43.4121 40.6484 43.8727 41.109 43.8727 41.8C43.8727 42.4909 43.4121 42.9515 42.7212 42.9515H5.64244C4.49093 42.9515 3.68487 43.7575 3.68487 44.909C3.68487 46.0606 4.49093 46.8666 5.64244 46.8666H42.8364C43.5273 46.8666 43.9879 47.3272 43.9879 48.0181C43.9879 48.709 43.5273 49.1697 42.8364 49.1697Z" fill="#FF43AF"/>
<path d="M35.9274 55.1573H8.06069C7.36979 55.1573 6.90918 54.6967 6.90918 54.0058C6.90918 53.3149 7.36979 52.8542 8.06069 52.8542H35.9274C36.6183 52.8542 37.0789 53.3149 37.0789 54.0058C37.0789 54.6967 36.6183 55.1573 35.9274 55.1573Z" fill="#FF43AF"/>
<path d="M14.9697 42.9515H5.87271C5.1818 42.9515 4.72119 42.4909 4.72119 41.8V35.2364C4.72119 34.5454 5.1818 34.0848 5.87271 34.0848H14.9697C15.6606 34.0848 16.1212 34.5454 16.1212 35.2364V41.8C16.1212 42.4909 15.6606 42.9515 14.9697 42.9515ZM7.02422 40.6485H13.8182V36.3879H7.02422V40.6485Z" fill="#FF43AF"/>
<path d="M12.6668 36.3877H8.06069C7.36979 36.3877 6.90918 35.9271 6.90918 35.2362V12.8968C6.90918 6.44834 12.2061 1.15137 18.7698 1.15137C25.2183 1.15137 30.5152 6.44834 30.5152 12.8968V14.1635C30.5152 14.8544 30.0546 15.315 29.3637 15.315C28.6728 15.315 28.2122 14.8544 28.2122 14.1635V12.8968C28.2122 7.715 23.9516 3.4544 18.7698 3.4544C13.4728 3.4544 9.21221 7.715 9.21221 12.8968V34.0847H11.5152V12.8968C11.5152 8.86652 14.7395 5.64228 18.7698 5.64228C22.8001 5.64228 26.0243 8.86652 26.0243 12.8968V14.1635C26.0243 14.8544 25.5637 15.315 24.8728 15.315C24.1819 15.315 23.7213 14.8544 23.7213 14.1635V12.8968C23.7213 10.2483 21.4183 7.94531 18.7698 7.94531C16.1213 7.94531 13.8183 10.2483 13.8183 12.8968V35.2362C13.8183 35.9271 13.3577 36.3877 12.6668 36.3877Z" fill="#FF43AF"/>
<path d="M33.7395 22.2241H19.6911C19.0002 22.2241 18.5396 21.7635 18.5396 21.0726C18.5396 16.4665 22.1092 12.8969 26.7153 12.8969C31.3214 12.8969 34.8911 16.4665 34.8911 21.0726C34.8911 21.7635 34.4305 22.2241 33.7395 22.2241ZM20.9577 19.9211H32.4729C31.8971 17.1575 29.5941 15.1999 26.7153 15.1999C23.8365 15.1999 21.4183 17.1575 20.9577 19.9211Z" fill="#FF43AF"/>
<path d="M14.3939 31.6665H12.6667C11.9757 31.6665 11.5151 31.2059 11.5151 30.515V25.5635C11.5151 24.8726 11.9757 24.412 12.6667 24.412H14.3939C16.4667 24.412 18.0788 26.0241 18.0788 28.0968C17.8485 30.1696 16.2363 31.6665 14.3939 31.6665ZM13.8182 29.3635H14.3939C15.2 29.3635 15.7757 28.6726 15.7757 27.9817C15.7757 27.2908 15.0848 26.715 14.3939 26.715H13.8182V29.3635Z" fill="#FF43AF"/>
<path d="M57.3452 58.3818H42.8361C42.1452 58.3818 41.6846 57.9212 41.6846 57.2302V39.9575C41.6846 37.9999 43.2967 36.3878 45.2543 36.3878H60.1088C60.7997 36.3878 61.2603 36.8484 61.2603 37.5393C61.2603 38.2302 60.7997 38.6908 60.1088 38.6908H45.2543C44.6785 38.6908 43.9876 39.1515 43.9876 39.9575V56.0787H56.1937V40.1878C56.1937 39.4969 56.6543 39.0363 57.3452 39.0363C58.0361 39.0363 58.4967 39.4969 58.4967 40.1878V57.2302C58.4967 57.9212 58.0361 58.3818 57.3452 58.3818Z" fill="#FF43AF"/>
<path d="M62.8726 42.9514H57.3454C56.6545 42.9514 56.1938 42.4908 56.1938 41.7999V40.1877C56.1938 38.115 58.0363 36.2726 60.109 36.2726C62.1817 36.2726 64.0241 38.115 64.0241 40.1877V41.7999C64.0241 42.4908 63.5635 42.9514 62.8726 42.9514ZM58.4969 40.6483H61.7211V40.1877C61.7211 39.3817 60.9151 38.5756 60.109 38.5756C59.3029 38.5756 58.4969 39.3817 58.4969 40.1877V40.6483Z" fill="#FF43AF"/>
<path d="M73.4668 23.2604H44.1032C43.4123 23.2604 42.9517 22.7998 42.9517 22.1089V16.6968C42.9517 16.0059 43.4123 15.5453 44.1032 15.5453H73.4668C74.1577 15.5453 74.6183 16.0059 74.6183 16.6968V22.1089C74.6183 22.7998 74.1577 23.2604 73.4668 23.2604ZM45.2547 20.9574H72.3153V17.8483H45.2547V20.9574Z" fill="#FF43AF"/>
<path d="M52.0486 17.8483H46.0607C45.3698 17.8483 44.9092 17.3877 44.9092 16.6968V2.30288C44.9092 1.61197 45.3698 1.15137 46.0607 1.15137H52.0486C52.7395 1.15137 53.2001 1.61197 53.2001 2.30288V16.6968C53.2001 17.3877 52.7395 17.8483 52.0486 17.8483ZM47.2122 15.5453H50.8971V3.4544H47.2122V15.5453Z" fill="#FF43AF"/>
<path d="M62.1819 17.9635H56.194C55.5031 17.9635 55.0425 17.5029 55.0425 16.812V6.90896C55.0425 6.21805 55.5031 5.75745 56.194 5.75745H62.1819C62.8728 5.75745 63.3334 6.21805 63.3334 6.90896V16.812C63.3334 17.5029 62.8728 17.9635 62.1819 17.9635ZM57.3455 15.6605H61.0304V8.06048H57.3455V15.6605Z" fill="#FF43AF"/>
<path d="M71.394 17.9636H66.3273C65.6364 17.9636 65.1758 17.503 65.1758 16.8121V7.6C65.1758 6.90909 65.6364 6.44849 66.3273 6.44849H71.394C72.0849 6.44849 72.5455 6.90909 72.5455 7.6V16.8121C72.5455 17.503 72.0849 17.9636 71.394 17.9636ZM67.4788 15.6606H70.2424V8.75152H67.4788V15.6606Z" fill="#FF43AF"/>
<path d="M52.0486 7.83025H46.0607C45.3698 7.83025 44.9092 7.36965 44.9092 6.67874C44.9092 5.98783 45.3698 5.52722 46.0607 5.52722H52.0486C52.7395 5.52722 53.2001 5.98783 53.2001 6.67874C53.2001 7.36965 52.7395 7.83025 52.0486 7.83025Z" fill="#FF43AF"/>
<path d="M62.1819 11.9755H56.194C55.5031 11.9755 55.0425 11.5149 55.0425 10.824C55.0425 10.1331 55.5031 9.67249 56.194 9.67249H62.1819C62.8728 9.67249 63.3334 10.1331 63.3334 10.824C63.3334 11.5149 62.8728 11.9755 62.1819 11.9755Z" fill="#FF43AF"/>
<path d="M21.9938 29.709C21.3029 29.709 20.8423 29.2484 20.8423 28.5575V26.0242C20.8423 25.3333 21.3029 24.8727 21.9938 24.8727C22.6847 24.8727 23.1453 25.3333 23.1453 26.0242V28.5575C23.1453 29.2484 22.6847 29.709 21.9938 29.709Z" fill="#FF43AF"/>
<path d="M26.715 29.709C26.0241 29.709 25.5635 29.2484 25.5635 28.5575V26.0242C25.5635 25.3333 26.0241 24.8727 26.715 24.8727C27.4059 24.8727 27.8665 25.3333 27.8665 26.0242V28.5575C27.8665 29.2484 27.4059 29.709 26.715 29.709Z" fill="#FF43AF"/>
<path d="M31.4362 29.709C30.7453 29.709 30.2847 29.2484 30.2847 28.5575V26.0242C30.2847 25.3333 30.7453 24.8727 31.4362 24.8727C32.1271 24.8727 32.5877 25.3333 32.5877 26.0242V28.5575C32.5877 29.2484 32.1271 29.709 31.4362 29.709Z" fill="#FF43AF"/>
</svg>
