<svg width="70" height="70" viewBox="0 0 70 70" fill="none" xmlns="http://www.w3.org/2000/svg">
<g clip-path="url(#clip0_36_932)">
<path d="M5.50684 7.85791V36.3781C5.50684 37.5201 6.43331 38.4452 7.5739 38.4452L24.8008 38.4314V7.85791" stroke="#FF43AF" stroke-width="2.7451" stroke-miterlimit="10" stroke-linecap="round" stroke-linejoin="round"/>
<path d="M34.7709 61.7647H20.5883C16.0401 61.7647 12.353 58.0777 12.353 53.5294C12.353 51.3268 12.353 40.7171 12.353 38.4314" stroke="#FF43AF" stroke-width="2.7451" stroke-miterlimit="10" stroke-linecap="round" stroke-linejoin="round"/>
<path d="M17.7871 38.4369V52.1569C17.7871 54.4311 19.6307 56.2745 21.9048 56.2745H36.2355" stroke="#FF43AF" stroke-width="2.7451" stroke-miterlimit="10" stroke-linecap="round" stroke-linejoin="round"/>
<path d="M68.6277 35C68.6277 36.8974 67.0905 38.4313 65.1963 38.4313H24.8008V31.5686H65.1963C67.0918 31.5686 68.6277 33.1045 68.6277 35Z" stroke="#FF43AF" stroke-width="2.7451" stroke-miterlimit="10" stroke-linecap="round" stroke-linejoin="round"/>
<path d="M52.157 52.1569H38.4315C30.8512 52.1569 24.7061 46.0117 24.7061 38.4314H65.8825C65.8825 46.0117 59.7374 52.1569 52.157 52.1569Z" stroke="#FF43AF" stroke-width="2.7451" stroke-miterlimit="10" stroke-linecap="round" stroke-linejoin="round"/>
<path d="M57.6468 68.6275L53.2437 52.1144" stroke="#FF43AF" stroke-width="2.7451" stroke-miterlimit="10" stroke-linecap="round" stroke-linejoin="round"/>
<path d="M37.3441 52.1144L32.9409 68.6275" stroke="#FF43AF" stroke-width="2.7451" stroke-miterlimit="10" stroke-linecap="round" stroke-linejoin="round"/>
<path d="M63.1374 68.6274H27.4512" stroke="#FF43AF" stroke-width="2.7451" stroke-miterlimit="10" stroke-linecap="round" stroke-linejoin="round"/>
<path d="M25.598 7.82354H4.59805C2.81662 7.82354 1.37256 6.37948 1.37256 4.59805C1.37256 2.81662 2.81662 1.37256 4.59805 1.37256H25.598C27.3795 1.37256 28.8235 2.81662 28.8235 4.59805C28.8235 6.37948 27.3795 7.82354 25.598 7.82354Z" stroke="#FF43AF" stroke-width="2.7451" stroke-miterlimit="10" stroke-linecap="round" stroke-linejoin="round"/>
<path d="M15.0981 17.8431C16.6142 17.8431 17.8432 16.6141 17.8432 15.098C17.8432 13.5819 16.6142 12.3529 15.0981 12.3529C13.582 12.3529 12.353 13.5819 12.353 15.098C12.353 16.6141 13.582 17.8431 15.0981 17.8431Z" stroke="#FF43AF" stroke-width="2.7451" stroke-miterlimit="10" stroke-linecap="round" stroke-linejoin="round"/>
</g>
<defs>
<clipPath id="clip0_36_932">
<rect width="70" height="70" fill="white"/>
</clipPath>
</defs>
</svg>
